<svg width="18" height="18" viewBox="0 0 18 18" xmlns="http://www.w3.org/2000/svg">
<path d="M12.392 5.608L13.1509 5.86098C13.2468 5.57351 13.172 5.25658 12.9577 5.04232C12.7434 4.82805 12.4265 4.75323 12.139 4.84905L12.392 5.608ZM10.696 10.696L10.949 11.4549C11.1879 11.3753 11.3753 11.1879 11.4549 10.949L10.696 10.696ZM5.608 12.392L4.84905 12.139C4.75323 12.4265 4.82805 12.7434 5.04232 12.9577C5.25658 13.172 5.57351 13.2468 5.86098 13.1509L5.608 12.392ZM7.304 7.304L7.05102 6.54505C6.81213 6.62468 6.62468 6.81213 6.54505 7.05102L7.304 7.304ZM16.2 9C16.2 12.9765 12.9765 16.2 9 16.2V17.8C13.8601 17.8 17.8 13.8601 17.8 9H16.2ZM9 16.2C5.02355 16.2 1.8 12.9765 1.8 9H0.2C0.2 13.8601 4.13989 17.8 9 17.8V16.2ZM1.8 9C1.8 5.02355 5.02355 1.8 9 1.8V0.2C4.13989 0.2 0.2 4.13989 0.2 9H1.8ZM9 1.8C12.9765 1.8 16.2 5.02355 16.2 9H17.8C17.8 4.13989 13.8601 0.2 9 0.2V1.8ZM11.6331 5.35502L9.93705 10.443L11.4549 10.949L13.1509 5.86098L11.6331 5.35502ZM10.443 9.93705L5.35502 11.6331L5.86098 13.1509L10.949 11.4549L10.443 9.93705ZM6.36695 12.645L8.06295 7.55698L6.54505 7.05102L4.84905 12.139L6.36695 12.645ZM7.55698 8.06295L12.645 6.36695L12.139 4.84905L7.05102 6.54505L7.55698 8.06295Z"/>
</svg>
