<svg width="16" height="18" viewBox="0 0 16 18" xmlns="http://www.w3.org/2000/svg">
<path d="M1 6.6L0.500244 5.97531C0.310472 6.12712 0.2 6.35697 0.2 6.6H1ZM8 1L8.49976 0.375305C8.20758 0.141565 7.79242 0.141565 7.50024 0.375305L8 1ZM15 6.6H15.8C15.8 6.35697 15.6895 6.12712 15.4998 5.97531L15 6.6ZM1 15.4H0.2H1ZM4.86667 17C4.86667 17.4418 5.22484 17.8 5.66667 17.8C6.10849 17.8 6.46667 17.4418 6.46667 17H4.86667ZM5.66667 9V8.2C5.22484 8.2 4.86667 8.55817 4.86667 9H5.66667ZM10.3333 9H11.1333C11.1333 8.55817 10.7752 8.2 10.3333 8.2V9ZM9.53333 17C9.53333 17.4418 9.89151 17.8 10.3333 17.8C10.7752 17.8 11.1333 17.4418 11.1333 17H9.53333ZM1.49976 7.2247L8.49976 1.6247L7.50024 0.375305L0.500244 5.97531L1.49976 7.2247ZM7.50024 1.6247L14.5002 7.2247L15.4998 5.97531L8.49976 0.375305L7.50024 1.6247ZM14.2 6.6V15.4H15.8V6.6H14.2ZM14.2 15.4C14.2 15.6193 14.1151 15.8253 13.9708 15.9737L15.118 17.089C15.5571 16.6373 15.8 16.0294 15.8 15.4H14.2ZM13.9708 15.9737C13.8272 16.1214 13.6374 16.2 13.4444 16.2V17.8C14.0766 17.8 14.6781 17.5415 15.118 17.089L13.9708 15.9737ZM13.4444 16.2H2.55556V17.8H13.4444V16.2ZM2.55556 16.2C2.36256 16.2 2.17275 16.1214 2.02921 15.9737L0.882016 17.089C1.32192 17.5415 1.92343 17.8 2.55556 17.8V16.2ZM2.02921 15.9737C1.88492 15.8253 1.8 15.6193 1.8 15.4H0.2C0.2 16.0294 0.442856 16.6373 0.882016 17.089L2.02921 15.9737ZM1.8 15.4V6.6H0.2V15.4H1.8ZM6.46667 17V9H4.86667V17H6.46667ZM5.66667 9.8H10.3333V8.2H5.66667V9.8ZM9.53333 9V17H11.1333V9H9.53333Z"/>
</svg>
