<svg width="6" height="10" viewBox="0 0 6 10" xmlns="http://www.w3.org/2000/svg">
<path d="M1 5L0.434315 4.43431C0.121895 4.74673 0.121895 5.25327 0.434315 5.56569L1 5ZM4.43431 9.56569C4.74673 9.87811 5.25327 9.87811 5.56569 9.56569C5.8781 9.25327 5.8781 8.74673 5.56569 8.43431L4.43431 9.56569ZM5.56569 1.56569C5.8781 1.25327 5.8781 0.746734 5.56569 0.434315C5.25327 0.121895 4.74673 0.121895 4.43431 0.434315L5.56569 1.56569ZM5.56569 8.43431L1.56569 4.43431L0.434315 5.56569L4.43431 9.56569L5.56569 8.43431ZM1.56569 5.56569L5.56569 1.56569L4.43431 0.434315L0.434315 4.43431L1.56569 5.56569Z"/>
</svg>
