<svg width="320" height="340" viewBox="0 0 320 340" fill="none" xmlns="http://www.w3.org/2000/svg">
<g clip-path="url(#clip0_633_10275)">
<ellipse cx="146.372" cy="154.18" rx="146.372" ry="145" fill="#EBF2FF"/>
<path d="M232.3 300.053C232.492 300.347 232.764 300.58 233.079 300.72C233.395 300.859 233.738 300.899 234.064 300.833C234.389 300.767 234.68 300.599 234.897 300.352C235.115 300.104 235.249 299.789 235.28 299.449C235.385 299.321 235.461 299.228 235.566 299.1C236.41 298.909 237.307 298.985 238.141 299.318C238.976 299.651 239.71 300.225 240.25 300.967C240.789 301.709 241.11 302.585 241.17 303.483C241.231 304.381 241.029 305.26 240.59 306.007C238.156 310.246 235.943 315.063 231.203 316.845C250.134 313.927 265.732 299.158 270.212 280.256C269.638 276.327 270.601 272.122 273.215 269.336C273.78 271.079 276.125 272.08 276.76 270.011C276.963 269.166 277.16 268.319 277.363 267.473C286.587 269.034 282.742 281.503 271.253 280.742C270.365 284.314 269.108 287.757 267.502 291.016C270.036 288.716 273.106 287.102 276.461 286.304C279.65 285.648 283.127 286.205 286.487 286.482C290.577 286.816 292.57 292.098 289.541 294.703C287.509 293.149 284.639 294.81 285.898 297.351C279.452 301.06 270.911 300.804 264.128 296.889C260.045 303.047 254.667 308.157 248.354 311.88C256.025 307.94 263.407 314.717 270.147 318.322C270.613 318.525 271.02 318.859 271.318 319.283C271.616 319.707 271.792 320.203 271.825 320.71C271.858 321.217 271.747 321.714 271.504 322.139C271.261 322.565 270.898 322.9 270.458 323.106C269.617 322.545 268.728 322.067 267.805 321.681C267.369 321.502 266.898 321.462 266.458 321.566C266.017 321.67 265.627 321.914 265.342 322.264C265.057 322.614 264.89 323.052 264.865 323.52C264.84 323.987 264.957 324.46 265.201 324.874C256.698 326.708 247.146 322.559 241.841 315.074C238.418 316.439 234.842 317.425 231.172 318.019L223.262 306.937C223.348 306.815 223.441 306.694 223.531 306.576C224.203 307.645 224.995 308.634 225.89 309.521C226.953 304.661 226.985 301.468 232.299 300.053L232.3 300.053Z" fill="#F1F6FB"/>
<path d="M270.153 63.1152L187.363 15.5944C174.486 8.20343 157.776 13.0122 150.039 26.3351L36.3612 222.079C28.624 235.402 32.7902 252.194 45.6666 259.585L128.457 307.106C141.333 314.497 158.044 309.688 165.781 296.365L279.459 100.621C287.196 87.2979 283.03 70.5061 270.153 63.1152Z" fill="#042668"/>
<path d="M277.274 99.3694L163.598 295.112C160.225 300.905 154.769 305.184 148.427 307.009C142.085 308.834 135.374 308.057 129.768 304.848L46.9789 257.327C41.3802 254.105 37.348 248.716 35.7669 242.343C34.1857 235.97 35.1847 229.134 38.5447 223.333L152.221 27.5903C155.594 21.7972 161.05 17.5188 167.392 15.6938C173.734 13.8687 180.445 14.646 186.051 17.8551L196.877 24.0691L194.63 27.9385C193.613 29.6903 193.31 31.7563 193.788 33.6821C194.265 35.6079 195.485 37.2358 197.178 38.2077L245.548 65.9714C247.241 66.943 249.269 67.1791 251.185 66.6276C253.102 66.0761 254.75 64.7822 255.767 63.0305L258.014 59.1612L268.84 65.3752C274.439 68.5977 278.471 73.9865 280.052 80.3594C281.633 86.7323 280.634 93.5689 277.274 99.3694Z" fill="#073BA1"/>
<path d="M134.708 51.3659C134.287 51.1238 133.984 50.7188 133.865 50.24C133.746 49.7611 133.821 49.2473 134.074 48.8114L135.982 45.5254C136.235 45.0896 136.645 44.7677 137.122 44.6305C137.599 44.4933 138.103 44.5521 138.524 44.7938C138.946 45.0355 139.249 45.4405 139.368 45.9196C139.487 46.3986 139.411 46.9126 139.158 47.3483L137.25 50.6344C136.996 51.0697 136.586 51.3912 136.11 51.5284C135.633 51.6655 135.129 51.6071 134.708 51.3659Z" fill="#073BA1"/>
<path d="M124.922 68.2167C124.501 67.9745 124.198 67.5696 124.08 67.0907C123.961 66.6118 124.036 66.0981 124.288 65.6622L129.541 56.6167C129.794 56.1809 130.204 55.859 130.681 55.7218C131.158 55.5846 131.662 55.6434 132.084 55.8851C132.505 56.1269 132.808 56.5318 132.927 57.0109C133.046 57.4899 132.97 58.0039 132.717 58.4396L127.464 67.4851C127.211 67.9205 126.801 68.242 126.324 68.3791C125.848 68.5163 125.343 68.4579 124.922 68.2167Z" fill="#073BA1"/>
<path d="M117.055 81.7626C116.635 81.5204 116.332 81.1155 116.213 80.6366C116.094 80.1577 116.169 79.644 116.422 79.2081L121.675 70.1626C121.928 69.7268 122.338 69.4049 122.815 69.2677C123.291 69.1305 123.796 69.1893 124.217 69.431C124.638 69.6728 124.941 70.0777 125.06 70.5568C125.179 71.0358 125.104 71.5498 124.851 71.9855L119.598 81.031C119.344 81.4664 118.934 81.7879 118.458 81.925C117.981 82.0622 117.477 82.0038 117.055 81.7626Z" fill="#073BA1"/>
<path d="M251.563 149.111C251.142 148.869 250.839 148.464 250.72 147.985C250.602 147.506 250.677 146.992 250.929 146.556L263.747 124.485C264 124.049 264.41 123.727 264.887 123.59C265.364 123.453 265.868 123.512 266.289 123.753C266.71 123.995 267.014 124.4 267.133 124.879C267.251 125.358 267.176 125.872 266.923 126.308L254.105 148.379C253.852 148.815 253.442 149.136 252.965 149.273C252.488 149.41 251.984 149.352 251.563 149.111Z" fill="#073BA1"/>
<path d="M227.793 48.8486L215.486 41.7846C215.223 41.6335 215.033 41.3804 214.959 41.081C214.884 40.7816 214.932 40.4604 215.09 40.188C215.248 39.9157 215.504 39.7145 215.802 39.6288C216.1 39.543 216.415 39.5797 216.679 39.7308L228.985 46.7948C229.249 46.9459 229.438 47.199 229.512 47.4984C229.587 47.7978 229.54 48.119 229.381 48.3914C229.223 48.6637 228.967 48.8649 228.669 48.9506C228.371 49.0364 228.056 48.9997 227.793 48.8486Z" fill="white"/>
<path d="M234.264 52.2887C234.703 52.5404 235.272 52.3767 235.535 51.9229C235.799 51.4692 235.657 50.8974 235.218 50.6457C234.78 50.394 234.211 50.5577 233.947 51.0115C233.684 51.4652 233.826 52.037 234.264 52.2887Z" fill="white"/>
<path d="M186.525 31.0352L175.806 24.8827C175.279 24.5805 174.9 24.0743 174.752 23.4755C174.603 22.8767 174.697 22.2342 175.014 21.6895C175.33 21.1448 175.842 20.7425 176.438 20.571C177.034 20.3995 177.665 20.4729 178.191 20.7751L188.91 26.9276C189.437 27.2298 189.816 27.7359 189.964 28.3348C190.113 28.9336 190.019 29.576 189.702 30.1207C189.386 30.6654 188.874 31.0678 188.278 31.2393C187.682 31.4108 187.051 31.3374 186.525 31.0352Z" fill="#073BA1"/>
<path d="M256.912 71.1632C257.898 71.7295 259.179 71.361 259.771 70.3402C260.364 69.3193 260.045 68.0327 259.058 67.4663C258.072 66.9 256.791 67.2685 256.199 68.2893C255.606 69.3102 255.925 70.5968 256.912 71.1632Z" fill="#5776D2"/>
<path d="M262.108 74.1461C263.095 74.7124 264.375 74.3439 264.968 73.3231C265.561 72.3022 265.242 71.0156 264.255 70.4492C263.269 69.8829 261.988 70.2514 261.395 71.2722C260.802 72.2931 261.122 73.5798 262.108 74.1461Z" fill="#5776D2"/>
<path d="M267.305 77.129C268.292 77.6953 269.572 77.3268 270.165 76.306C270.758 75.2851 270.439 73.9985 269.452 73.4322C268.465 72.8658 267.185 73.2343 266.592 74.2552C265.999 75.276 266.318 76.5627 267.305 77.129Z" fill="#5776D2"/>
<rect width="131.056" height="231.196" rx="5" transform="matrix(0.867152 0.498044 -0.502414 0.864627 159.369 28.5781)" fill="#EBF2FF"/>
<path d="M225.095 137.472L144.666 91.249C143.362 90.4977 142.424 89.2419 142.056 87.7572C141.689 86.2725 141.922 84.6801 142.706 83.3293L149.226 72.1136C150.013 70.7645 151.284 69.7686 152.762 69.3442C154.239 68.9199 155.802 69.1018 157.108 69.85L237.537 116.073C238.841 116.824 239.779 118.08 240.147 119.564C240.514 121.049 240.281 122.642 239.498 123.992L232.977 135.208C232.19 136.557 230.919 137.553 229.441 137.977C227.964 138.402 226.401 138.22 225.095 137.472Z" fill="#B2C6FA"/>
<path d="M201.989 107.357L178.291 93.7376C178.01 93.576 177.808 93.3055 177.728 92.9855C177.649 92.6656 177.7 92.3224 177.869 92.0315C178.038 91.7406 178.312 91.5257 178.63 91.4343C178.949 91.3428 179.286 91.3822 179.567 91.5438L203.265 105.163C203.546 105.325 203.748 105.595 203.827 105.915C203.907 106.235 203.856 106.578 203.687 106.869C203.518 107.16 203.244 107.375 202.925 107.466C202.607 107.558 202.27 107.518 201.989 107.357Z" fill="#C9EAFF"/>
<path d="M221.274 126.489L174.519 99.6185C174.237 99.4569 174.035 99.1863 173.956 98.8664C173.876 98.5464 173.927 98.2032 174.096 97.9123C174.265 97.6214 174.539 97.4066 174.858 97.3151C175.176 97.2237 175.513 97.2631 175.794 97.4247L222.549 124.295C222.83 124.456 223.033 124.727 223.112 125.047C223.191 125.367 223.141 125.71 222.972 126.001C222.802 126.292 222.529 126.507 222.21 126.598C221.892 126.69 221.555 126.65 221.274 126.489Z" fill="#C9EAFF"/>
<path d="M160.309 95.7765C164.235 98.0324 169.331 96.5686 171.693 92.5069C174.054 88.4452 172.786 83.3237 168.861 81.0677C164.935 78.8117 159.839 80.2756 157.477 84.3373C155.116 88.399 156.384 93.5205 160.309 95.7765Z" fill="#C9EAFF"/>
<path d="M205.325 171.495L124.895 125.272C123.592 124.521 122.653 123.265 122.285 121.781C121.918 120.296 122.151 118.704 122.935 117.353L129.456 106.137C130.242 104.788 131.513 103.792 132.991 103.368C134.468 102.943 136.031 103.125 137.337 103.873L217.766 150.096C219.07 150.847 220.009 152.103 220.376 153.588C220.744 155.073 220.51 156.665 219.727 158.016L213.206 169.231C212.42 170.581 211.148 171.576 209.671 172.001C208.193 172.425 206.63 172.243 205.325 171.495Z" fill="#B2C6FA"/>
<path d="M182.218 141.38L158.52 127.761C158.239 127.599 158.037 127.329 157.958 127.009C157.878 126.689 157.929 126.346 158.098 126.055C158.267 125.764 158.541 125.549 158.86 125.458C159.178 125.366 159.515 125.406 159.796 125.567L183.494 139.186C183.775 139.348 183.977 139.618 184.057 139.938C184.136 140.258 184.085 140.602 183.916 140.893C183.747 141.183 183.473 141.398 183.155 141.49C182.836 141.581 182.499 141.542 182.218 141.38Z" fill="#C9EAFF"/>
<path d="M201.503 160.512L154.748 133.642C154.467 133.48 154.264 133.21 154.185 132.89C154.106 132.57 154.156 132.227 154.325 131.936C154.495 131.645 154.768 131.43 155.087 131.339C155.405 131.247 155.742 131.287 156.023 131.448L202.778 158.318C203.06 158.48 203.262 158.75 203.341 159.07C203.421 159.39 203.37 159.734 203.201 160.024C203.032 160.315 202.758 160.53 202.439 160.622C202.121 160.713 201.784 160.674 201.503 160.512Z" fill="#C9EAFF"/>
<path d="M140.538 129.8C144.464 132.056 149.561 130.592 151.922 126.53C154.284 122.469 153.016 117.347 149.09 115.091C145.165 112.835 140.068 114.299 137.707 118.361C135.345 122.422 136.613 127.544 140.538 129.8Z" fill="#C9EAFF"/>
<path d="M185.554 205.52L105.125 159.297C103.821 158.546 102.882 157.29 102.515 155.805C102.147 154.32 102.381 152.728 103.164 151.377L109.685 140.161C110.471 138.812 111.743 137.816 113.22 137.392C114.698 136.968 116.261 137.15 117.566 137.898L197.995 184.121C199.299 184.872 200.238 186.128 200.605 187.612C200.973 189.097 200.739 190.689 199.956 192.04L193.435 203.256C192.649 204.605 191.377 205.601 189.9 206.025C188.422 206.45 186.859 206.268 185.554 205.52Z" fill="#B2C6FA"/>
<path d="M162.448 175.405L138.75 161.785C138.469 161.624 138.266 161.353 138.187 161.033C138.108 160.713 138.158 160.37 138.327 160.079C138.496 159.788 138.77 159.574 139.089 159.482C139.407 159.391 139.744 159.43 140.025 159.592L163.723 173.211C164.004 173.372 164.207 173.643 164.286 173.963C164.365 174.283 164.315 174.626 164.145 174.917C163.976 175.208 163.702 175.423 163.384 175.514C163.066 175.606 162.729 175.566 162.448 175.405Z" fill="#C9EAFF"/>
<path d="M181.732 194.537L134.977 167.666C134.696 167.505 134.493 167.234 134.414 166.914C134.335 166.594 134.386 166.251 134.555 165.96C134.724 165.669 134.998 165.454 135.316 165.363C135.634 165.272 135.971 165.311 136.253 165.473L183.008 192.343C183.289 192.504 183.491 192.775 183.571 193.095C183.65 193.415 183.599 193.758 183.43 194.049C183.261 194.34 182.987 194.555 182.669 194.646C182.35 194.737 182.013 194.698 181.732 194.537Z" fill="#C9EAFF"/>
<path d="M120.768 163.824C124.693 166.08 129.79 164.616 132.151 160.555C134.513 156.493 133.245 151.372 129.319 149.116C125.394 146.86 120.297 148.323 117.936 152.385C115.574 156.447 116.842 161.568 120.768 163.824Z" fill="#C9EAFF"/>
<path d="M165.783 239.544L85.3536 193.322C84.0499 192.57 83.1112 191.315 82.7437 189.83C82.3762 188.345 82.6097 186.753 83.393 185.402L89.914 174.186C90.7003 172.837 91.9717 171.841 93.4491 171.417C94.9266 170.993 96.4896 171.175 97.7951 171.923L178.224 218.145C179.528 218.897 180.467 220.152 180.834 221.637C181.202 223.122 180.968 224.714 180.185 226.065L173.664 237.281C172.878 238.63 171.606 239.626 170.129 240.05C168.651 240.475 167.088 240.293 165.783 239.544Z" fill="#B2C6FA"/>
<path d="M142.677 209.429L118.979 195.81C118.698 195.649 118.495 195.378 118.416 195.058C118.337 194.738 118.387 194.395 118.556 194.104C118.725 193.813 118.999 193.598 119.318 193.507C119.636 193.416 119.973 193.455 120.254 193.617L143.952 207.236C144.233 207.397 144.436 207.668 144.515 207.988C144.594 208.308 144.544 208.651 144.374 208.942C144.205 209.233 143.931 209.448 143.613 209.539C143.295 209.63 142.958 209.591 142.677 209.429Z" fill="#C9EAFF"/>
<path d="M161.961 228.561L115.206 201.691C114.925 201.53 114.722 201.259 114.643 200.939C114.564 200.619 114.615 200.276 114.784 199.985C114.953 199.694 115.227 199.479 115.545 199.388C115.863 199.296 116.2 199.336 116.482 199.497L163.237 226.368C163.518 226.529 163.72 226.8 163.8 227.12C163.879 227.44 163.828 227.783 163.659 228.074C163.49 228.365 163.216 228.579 162.898 228.671C162.579 228.762 162.242 228.723 161.961 228.561Z" fill="#C9EAFF"/>
<path d="M100.997 197.849C104.922 200.105 110.019 198.641 112.38 194.58C114.742 190.518 113.474 185.396 109.548 183.14C105.623 180.884 100.526 182.348 98.1648 186.41C95.8033 190.472 97.0712 195.593 100.997 197.849Z" fill="#C9EAFF"/>
<rect width="103.908" height="18.4568" rx="9.22839" transform="matrix(0.867152 0.498044 -0.502414 0.864627 69.7078 208.965)" fill="#C9EAFF"/>
<path d="M86.3161 273.661C85.2429 269.269 87.9152 264.7 92.285 263.457C96.6549 262.213 101.067 264.765 102.141 269.157C103.214 273.55 100.542 278.119 96.1717 279.362C91.8019 280.606 87.3894 278.054 86.3161 273.661Z" fill="#042668"/>
<path d="M89.5351 272.45C88.9113 269.897 90.4644 267.241 93.0041 266.519C95.5438 265.796 98.1083 267.279 98.7321 269.832C99.3559 272.385 97.8027 275.04 95.263 275.763C92.7233 276.486 90.1588 275.002 89.5351 272.45Z" fill="#DEFFFF"/>
<rect width="39.3167" height="5.82846" rx="2.91423" transform="matrix(0.867152 0.498044 -0.502414 0.864627 46.7793 237.245)" fill="#5B96DA"/>
<rect width="39.3167" height="5.82846" rx="2.91423" transform="matrix(0.867152 0.498044 -0.502414 0.864627 113.354 275.458)" fill="#5B96DA"/>
</g>
<defs>
<clipPath id="clip0_633_10275">
<rect width="320" height="340" fill="white"/>
</clipPath>
</defs>
</svg>
