<svg width="24" height="25" viewBox="0 0 24 25" fill="none" xmlns="http://www.w3.org/2000/svg">
<path fill-rule="evenodd" clip-rule="evenodd" d="M13.979 12.6624C16.476 11.8374 18.2766 9.49761 18.2766 6.74C18.2766 3.29374 15.4644 0.5 11.9953 0.5C8.52631 0.5 5.71411 3.29374 5.71411 6.74C5.71411 9.49876 7.51621 11.8394 10.0147 12.6635C4.98275 13.5012 1.00978 17.4701 0.165917 22.5C0.0568378 23.1502 4.18832e-05 23.8181 0 24.4992L24 24.5C24 23.8188 23.9432 23.1502 23.8341 22.5C22.9899 17.468 19.014 13.4979 13.979 12.6624ZM16.2766 6.74C16.2766 9.06929 14.3722 10.98 11.9953 10.98C9.61844 10.98 7.71411 9.06929 7.71411 6.74C7.71411 4.41071 9.61844 2.5 11.9953 2.5C14.3722 2.5 16.2766 4.41071 16.2766 6.74ZM2.20004 22.5C3.12658 17.9355 7.16208 14.5 12 14.5C16.8379 14.5 20.8734 17.9355 21.8 22.5H2.20004Z" fill="url(#paint0_linear_645_21909)"/>
<defs>
<linearGradient id="paint0_linear_645_21909" x1="0" y1="0.5" x2="12" y2="24.5" gradientUnits="userSpaceOnUse">
<stop offset="0.356999" stop-color="#FFE353"/>
<stop offset="1" stop-color="#E5B700"/>
</linearGradient>
</defs>
</svg>
