<svg width="30" height="33" viewBox="0 0 30 33" fill="none" xmlns="http://www.w3.org/2000/svg">
<path d="M20.625 13.3018C20.625 13.0353 20.7238 12.7797 20.8996 12.5912C21.0754 12.4028 21.3139 12.2969 21.5625 12.2969H23.4375C23.6861 12.2969 23.9246 12.4028 24.1004 12.5912C24.2762 12.7797 24.375 13.0353 24.375 13.3018V15.3117C24.375 15.5782 24.2762 15.8339 24.1004 16.0223C23.9246 16.2108 23.6861 16.3167 23.4375 16.3167H21.5625C21.3139 16.3167 21.0754 16.2108 20.8996 16.0223C20.7238 15.8339 20.625 15.5782 20.625 15.3117V13.3018ZM15 13.3018C15 13.0353 15.0988 12.7797 15.2746 12.5912C15.4504 12.4028 15.6889 12.2969 15.9375 12.2969H17.8125C18.0611 12.2969 18.2996 12.4028 18.4754 12.5912C18.6512 12.7797 18.75 13.0353 18.75 13.3018V15.3117C18.75 15.5782 18.6512 15.8339 18.4754 16.0223C18.2996 16.2108 18.0611 16.3167 17.8125 16.3167H15.9375C15.6889 16.3167 15.4504 16.2108 15.2746 16.0223C15.0988 15.8339 15 15.5782 15 15.3117V13.3018ZM5.625 19.3315C5.625 19.065 5.72377 18.8094 5.89959 18.6209C6.0754 18.4324 6.31386 18.3266 6.5625 18.3266H8.4375C8.68614 18.3266 8.9246 18.4324 9.10041 18.6209C9.27623 18.8094 9.375 19.065 9.375 19.3315V21.3414C9.375 21.6079 9.27623 21.8635 9.10041 22.052C8.9246 22.2405 8.68614 22.3463 8.4375 22.3463H6.5625C6.31386 22.3463 6.0754 22.2405 5.89959 22.052C5.72377 21.8635 5.625 21.6079 5.625 21.3414V19.3315ZM11.25 19.3315C11.25 19.065 11.3488 18.8094 11.5246 18.6209C11.7004 18.4324 11.9389 18.3266 12.1875 18.3266H14.0625C14.3111 18.3266 14.5496 18.4324 14.7254 18.6209C14.9012 18.8094 15 19.065 15 19.3315V21.3414C15 21.6079 14.9012 21.8635 14.7254 22.052C14.5496 22.2405 14.3111 22.3463 14.0625 22.3463H12.1875C11.9389 22.3463 11.7004 22.2405 11.5246 22.052C11.3488 21.8635 11.25 21.6079 11.25 21.3414V19.3315Z" fill="#2186FA"/>
<path d="M6.5625 0.237305C6.81114 0.237305 7.0496 0.343183 7.22541 0.531647C7.40123 0.720111 7.5 0.975722 7.5 1.24225V2.2472H22.5V1.24225C22.5 0.975722 22.5988 0.720111 22.7746 0.531647C22.9504 0.343183 23.1889 0.237305 23.4375 0.237305C23.6861 0.237305 23.9246 0.343183 24.1004 0.531647C24.2762 0.720111 24.375 0.975722 24.375 1.24225V2.2472H26.25C27.2446 2.2472 28.1984 2.67071 28.9016 3.42456C29.6049 4.17842 30 5.20087 30 6.26698V28.3758C30 29.4419 29.6049 30.4644 28.9016 31.2182C28.1984 31.9721 27.2446 32.3956 26.25 32.3956H3.75C2.75544 32.3956 1.80161 31.9721 1.09835 31.2182C0.395088 30.4644 0 29.4419 0 28.3758V6.26698C0 5.20087 0.395088 4.17842 1.09835 3.42456C1.80161 2.67071 2.75544 2.2472 3.75 2.2472H5.625V1.24225C5.625 0.975722 5.72377 0.720111 5.89959 0.531647C6.0754 0.343183 6.31386 0.237305 6.5625 0.237305V0.237305ZM1.875 8.27687V28.3758C1.875 28.9088 2.07254 29.4201 2.42417 29.797C2.77581 30.1739 3.25272 30.3857 3.75 30.3857H26.25C26.7473 30.3857 27.2242 30.1739 27.5758 29.797C27.9275 29.4201 28.125 28.9088 28.125 28.3758V8.27687H1.875Z" fill="#2186FA"/>
</svg>
