<svg width="120" height="120" viewBox="0 0 120 120" fill="none" xmlns="http://www.w3.org/2000/svg">
<circle cx="60" cy="60" r="55" fill="white" stroke="#E5F1FF" stroke-width="10"/>
<path fill-rule="evenodd" clip-rule="evenodd" d="M43.5 37.5C43.1022 37.5 42.7206 37.658 42.4393 37.9393C42.158 38.2206 42 38.6022 42 39V85.5C42 85.8978 42.158 86.2794 42.4393 86.5607C42.7206 86.842 43.1022 87 43.5 87H76.5C76.8978 87 77.2794 86.842 77.5607 86.5607C77.842 86.2794 78 85.8978 78 85.5V39C78 38.6022 77.842 38.2206 77.5607 37.9393C77.2794 37.658 76.8978 37.5 76.5 37.5H68.1255V34.5H76.5C77.6935 34.5 78.8381 34.9741 79.682 35.818C80.5259 36.6619 81 37.8065 81 39V85.5C81 86.6935 80.5259 87.8381 79.682 88.682C78.8381 89.5259 77.6935 90 76.5 90H43.5C42.3065 90 41.1619 89.5259 40.318 88.682C39.4741 87.8381 39 86.6935 39 85.5V39C39 37.8065 39.4741 36.6619 40.318 35.818C41.1619 34.9741 42.3065 34.5 43.5 34.5H51.8745V37.5H43.5Z" fill="#2186FA"/>
<path fill-rule="evenodd" clip-rule="evenodd" d="M49.5 34.5C49.5 33.3065 49.9741 32.1619 50.818 31.318C51.6619 30.4741 52.8065 30 54 30H66C67.1935 30 68.3381 30.4741 69.182 31.318C70.0259 32.1619 70.5 33.3065 70.5 34.5V37.5C70.5 38.6935 70.0259 39.8381 69.182 40.682C68.3381 41.5259 67.1935 42 66 42H54C52.8065 42 51.6619 41.5259 50.818 40.682C49.9741 39.8381 49.5 38.6935 49.5 37.5V34.5ZM54 33C53.6022 33 53.2206 33.158 52.9393 33.4393C52.658 33.7206 52.5 34.1022 52.5 34.5V37.5C52.5 37.8978 52.658 38.2794 52.9393 38.5607C53.2206 38.842 53.6022 39 54 39H66C66.3978 39 66.7794 38.842 67.0607 38.5607C67.342 38.2794 67.5 37.8978 67.5 37.5V34.5C67.5 34.1022 67.342 33.7206 67.0607 33.4393C66.7794 33.158 66.3978 33 66 33H54ZM46.5 55.5C46.5 55.1022 46.658 54.7206 46.9393 54.4393C47.2206 54.158 47.6022 54 48 54H58.5C58.8978 54 59.2794 54.158 59.5607 54.4393C59.842 54.7206 60 55.1022 60 55.5C60 55.8978 59.842 56.2794 59.5607 56.5607C59.2794 56.842 58.8978 57 58.5 57H48C47.6022 57 47.2206 56.842 46.9393 56.5607C46.658 56.2794 46.5 55.8978 46.5 55.5ZM46.5 48C46.5 47.6022 46.658 47.2206 46.9393 46.9393C47.2206 46.658 47.6022 46.5 48 46.5H71.25C71.6478 46.5 72.0294 46.658 72.3107 46.9393C72.592 47.2206 72.75 47.6022 72.75 48C72.75 48.3978 72.592 48.7794 72.3107 49.0607C72.0294 49.342 71.6478 49.5 71.25 49.5H48C47.6022 49.5 47.2206 49.342 46.9393 49.0607C46.658 48.7794 46.5 48.3978 46.5 48ZM49.5 67.5V70.5H52.5V67.5H49.5ZM48 64.5C47.6022 64.5 47.2206 64.658 46.9393 64.9393C46.658 65.2206 46.5 65.6022 46.5 66V72C46.5 72.3978 46.658 72.7794 46.9393 73.0607C47.2206 73.342 47.6022 73.5 48 73.5H54C54.3978 73.5 54.7794 73.342 55.0607 73.0607C55.342 72.7794 55.5 72.3978 55.5 72V66C55.5 65.6022 55.342 65.2206 55.0607 64.9393C54.7794 64.658 54.3978 64.5 54 64.5H48ZM66 67.5C66.2024 67.5093 66.4046 67.4774 66.5944 67.4064C66.7841 67.3354 66.9576 67.2266 67.1041 67.0867C67.2507 66.9468 67.3675 66.7787 67.4473 66.5924C67.5271 66.4062 67.5683 66.2057 67.5685 66.0031C67.5688 65.8004 67.5279 65.5999 67.4485 65.4135C67.369 65.2271 67.2526 65.0587 67.1063 64.9185C66.96 64.7783 66.7868 64.6692 66.5972 64.5978C66.4076 64.5264 66.2054 64.4941 66.003 64.503C65.6172 64.5199 65.2527 64.6849 64.9855 64.9638C64.7183 65.2427 64.5689 65.6138 64.5686 66.0001C64.5682 66.3863 64.7168 66.7578 64.9834 67.0372C65.25 67.3166 65.6142 67.4823 66 67.5ZM66 70.5C67.1935 70.5 68.3381 70.0259 69.182 69.182C70.0259 68.3381 70.5 67.1935 70.5 66C70.5 64.8065 70.0259 63.6619 69.182 62.818C68.3381 61.9741 67.1935 61.5 66 61.5C64.8065 61.5 63.6619 61.9741 62.818 62.818C61.9741 63.6619 61.5 64.8065 61.5 66C61.5 67.1935 61.9741 68.3381 62.818 69.182C63.6619 70.0259 64.8065 70.5 66 70.5ZM60 76.92C60.0262 76.8893 60.0537 76.8598 60.0825 76.8315C60.3285 76.5915 60.8025 76.2735 61.5465 75.957C63.0465 75.3195 64.8975 75 66 75C67.1025 75 68.9535 75.3195 70.4535 75.957C71.1975 76.272 71.6715 76.5915 71.9175 76.8315C71.9462 76.8593 71.9738 76.8883 72 76.9185V79.5H60V76.92ZM66 72C62.9955 72 57 73.599 57 76.773V82.5H75V76.773C75 73.599 69.0045 72 66 72Z" fill="#2186FA"/>
</svg>
