<svg width="120" height="120" viewBox="0 0 120 120" fill="none" xmlns="http://www.w3.org/2000/svg">
<circle cx="60" cy="60" r="55" fill="white" stroke="#E5F1FF" stroke-width="10"/>
<path d="M76.6499 77.7252C75.9566 78.4268 75.2683 79.1252 74.6216 80.0118V81.6668H64.9999V80.0118C65.1633 78.7235 65.9949 76.4018 66.0199 75.7568C66.0533 74.8502 67.3299 73.1952 67.3299 73.1952L71.2433 68.4818C71.2433 68.4818 72.3499 67.3652 72.9849 66.1252C73.6183 64.8852 74.9683 66.4452 75.1466 67.5602C75.3249 68.6768 74.9849 69.2635 74.9849 69.2635L72.7483 73.5085C72.7483 73.5085 75.3399 70.1168 76.1449 68.7535C76.5533 68.0635 76.6666 66.6002 76.7949 64.9668C76.9183 63.3735 77.0549 61.6185 77.4883 60.2535C78.3666 57.4868 80.9083 58.1802 81.3499 59.4152C81.7899 60.6518 81.6899 68.8185 81.5299 70.1785C81.4049 71.2452 80.7333 72.2885 79.9733 73.4635C79.7633 73.7902 79.5466 74.1252 79.3333 74.4752C78.4833 75.8668 77.5616 76.8002 76.6499 77.7252ZM66.6666 90.0002C66.2246 90.0002 65.8007 89.8246 65.4881 89.512C65.1755 89.1994 64.9999 88.7755 64.9999 88.3335V85.0002C64.9999 84.5581 65.1755 84.1342 65.4881 83.8216C65.8007 83.5091 66.2246 83.3335 66.6666 83.3335H73.3333C73.7753 83.3335 74.1992 83.5091 74.5118 83.8216C74.8244 84.1342 74.9999 84.5581 74.9999 85.0002V88.3335C74.9999 88.7755 74.8244 89.1994 74.5118 89.512C74.1992 89.8246 73.7753 90.0002 73.3333 90.0002H66.6666ZM41.5949 77.7252C42.2899 78.4268 42.9799 79.1252 43.6283 80.0118V81.6668H53.3333V80.0118C53.1699 78.7235 52.8833 76.4018 52.8583 75.7568C52.8233 74.8502 51.5433 73.1952 51.5433 73.1952L47.6183 68.4818C47.6183 68.4818 46.5066 67.3652 45.8699 66.1252C45.2349 64.8852 43.8816 66.4452 43.7016 67.5602C43.5216 68.6768 43.8633 69.2635 43.8633 69.2635L46.1066 73.5085C46.1066 73.5085 43.5066 70.1168 42.6983 68.7535C42.2899 68.0635 42.1749 66.6002 42.0483 64.9668C41.9233 63.3735 41.7866 61.6185 41.3516 60.2535C40.4699 57.4868 37.9183 58.1802 37.4766 59.4152C37.0349 60.6518 36.5366 68.8185 36.6966 70.1785C36.8233 71.2452 37.4966 72.2885 38.2599 73.4635C38.4699 73.7902 38.6883 74.1252 38.9016 74.4752C39.7549 75.8668 40.6799 76.8002 41.5949 77.7252ZM51.6666 90.0002C52.1086 90.0002 52.5326 89.8246 52.8451 89.512C53.1577 89.1994 53.3333 88.7755 53.3333 88.3335V85.0002C53.3333 84.5581 53.1577 84.1342 52.8451 83.8216C52.5326 83.5091 52.1086 83.3335 51.6666 83.3335H44.9999C44.5579 83.3335 44.134 83.5091 43.8214 83.8216C43.5089 84.1342 43.3333 84.5581 43.3333 85.0002V88.3335C43.3333 88.7755 43.5089 89.1994 43.8214 89.512C44.134 89.8246 44.5579 90.0002 44.9999 90.0002H51.6666ZM44.9999 48.6785C44.9999 43.3118 48.3633 38.3335 52.9683 38.3335C56.1649 38.3335 58.5349 40.5668 59.9999 43.7335C61.4633 40.5668 63.8349 38.3335 67.0316 38.3335C71.6366 38.3335 74.9999 43.3118 74.9999 48.6785C74.9999 60.1668 59.9999 68.3335 59.9999 68.3335C59.9999 68.3335 44.9999 60.6602 44.9999 48.6785Z" fill="#2186FA"/>
</svg>
