<svg width="120" height="120" viewBox="0 0 120 120" fill="none" xmlns="http://www.w3.org/2000/svg">
<circle cx="60" cy="60" r="55" fill="white" stroke="#E5F1FF" stroke-width="10"/>
<path fill-rule="evenodd" clip-rule="evenodd" d="M59.2188 36.2742C59.4405 36.0967 59.716 36 60 36C60.284 36 60.5595 36.0967 60.7812 36.2742L79.1875 50.9992H82.5V58.4992H37.5V50.9992H40.8125L59.2175 36.2742H59.2188ZM61.25 42.2492V44.7492H63.75V47.2492H61.25V49.7492H58.75V47.2492H56.25V44.7492H58.75V42.2492H61.25ZM60 60.9992C58.6739 60.9992 57.4021 61.526 56.4645 62.4637C55.5268 63.4014 55 64.6731 55 65.9992V75.9992H47.5V70.9992H45V60.9992H40V70.9992H37.5V75.9992H35V83.4992H85V75.9992H82.5V70.9992H80V60.9992H75V70.9992H72.5V75.9992H65V65.9992C65 64.6731 64.4732 63.4014 63.5355 62.4637C62.5979 61.526 61.3261 60.9992 60 60.9992ZM60 63.4992C60.663 63.4992 61.2989 63.7626 61.7678 64.2315C62.2366 64.7003 62.5 65.3362 62.5 65.9992V75.9992H57.5V65.9992C57.5 65.3362 57.7634 64.7003 58.2322 64.2315C58.7011 63.7626 59.337 63.4992 60 63.4992Z" fill="#2186FA"/>
</svg>
