<svg width="24" height="18" viewBox="0 0 24 18" fill="none" xmlns="http://www.w3.org/2000/svg">
<path d="M15.2727 8.71975C15.2727 9.75356 14.8896 10.745 14.2077 11.476C13.5257 12.207 12.6008 12.6177 11.6364 12.6177C10.6719 12.6177 9.74702 12.207 9.06507 11.476C8.38312 10.745 8 9.75356 8 8.71975C8 7.68594 8.38312 6.69448 9.06507 5.96347C9.74702 5.23246 10.6719 4.82178 11.6364 4.82178C12.6008 4.82178 13.5257 5.23246 14.2077 5.96347C14.8896 6.69448 15.2727 7.68594 15.2727 8.71975Z" fill="#2186FA"/>
<path d="M0 8.71958C0 8.71958 4.36364 0.144043 11.6364 0.144043C18.9091 0.144043 23.2727 8.71958 23.2727 8.71958C23.2727 8.71958 18.9091 17.2951 11.6364 17.2951C4.36364 17.2951 0 8.71958 0 8.71958ZM11.6364 14.1767C12.9866 14.1767 14.2814 13.6018 15.2362 12.5784C16.1909 11.555 16.7273 10.1669 16.7273 8.71958C16.7273 7.27225 16.1909 5.8842 15.2362 4.86079C14.2814 3.83737 12.9866 3.26242 11.6364 3.26242C10.2862 3.26242 8.99128 3.83737 8.03655 4.86079C7.08182 5.8842 6.54545 7.27225 6.54545 8.71958C6.54545 10.1669 7.08182 11.555 8.03655 12.5784C8.99128 13.6018 10.2862 14.1767 11.6364 14.1767Z" fill="#2186FA"/>
</svg>
