<svg width="36" height="51" viewBox="0 0 36 51" fill="none" xmlns="http://www.w3.org/2000/svg">
<path d="M10.9199 27.8174L1.75977 25.6641L4.76758 0.234375H33.8545V9.18945H14.167L13.0391 19.0674C13.5859 18.7484 14.5088 18.3724 15.8076 17.9395C17.1292 17.4837 18.5876 17.2559 20.1826 17.2559C22.6436 17.2559 24.8197 17.6318 26.7109 18.3838C28.625 19.113 30.2428 20.1953 31.5645 21.6309C32.8861 23.0436 33.8773 24.7868 34.5381 26.8604C35.2217 28.9339 35.5635 31.3037 35.5635 33.9697C35.5635 36.1117 35.2103 38.1852 34.5039 40.1904C33.8203 42.1729 32.7607 43.9616 31.3252 45.5566C29.9124 47.1289 28.1237 48.3822 25.959 49.3164C23.7943 50.2279 21.2308 50.6836 18.2686 50.6836C16.0583 50.6836 13.9049 50.3418 11.8086 49.6582C9.71224 48.9746 7.82096 47.9948 6.13477 46.7188C4.47135 45.4199 3.14974 43.859 2.16992 42.0361C1.21289 40.1904 0.745768 38.1283 0.768555 35.8496H12.3555C12.4238 37.0573 12.7087 38.1055 13.21 38.9941C13.7113 39.8828 14.3835 40.5778 15.2266 41.0791C16.0924 41.5576 17.0837 41.7969 18.2002 41.7969C19.3395 41.7969 20.2852 41.569 21.0371 41.1133C21.7891 40.6576 22.3815 40.0309 22.8145 39.2334C23.2474 38.4359 23.555 37.5244 23.7373 36.499C23.9196 35.4508 24.0107 34.3457 24.0107 33.1836C24.0107 31.9531 23.874 30.848 23.6006 29.8682C23.3499 28.8883 22.9398 28.0566 22.3701 27.373C21.8005 26.6667 21.0599 26.1312 20.1484 25.7666C19.2598 25.402 18.1888 25.2197 16.9355 25.2197C15.2721 25.2197 13.9619 25.5046 13.0049 26.0742C12.0479 26.6439 11.3529 27.2249 10.9199 27.8174Z" fill="url(#paint0_linear_1_401)"/>
<defs>
<linearGradient id="paint0_linear_1_401" x1="18.5" y1="-15" x2="18.5" y2="67" gradientUnits="userSpaceOnUse">
<stop stop-color="#2186FA"/>
<stop offset="1" stop-color="#E2F0FF" stop-opacity="0"/>
</linearGradient>
</defs>
</svg>
