<svg width="30" height="33" viewBox="0 0 30 33" fill="none" xmlns="http://www.w3.org/2000/svg">
<path d="M15 0.237305C13.1639 0.237305 11.403 1.01917 10.1046 2.41091C8.80632 3.80264 8.07692 5.69024 8.07692 7.65844C8.07692 11.7574 14.0988 21.9355 14.0988 27.4481H15.9012C15.9012 21.954 21.9231 11.4234 21.9231 7.65844C21.9231 5.69024 21.1937 3.80264 19.8954 2.41091C18.597 1.01917 16.8361 0.237305 15 0.237305V0.237305ZM15 3.94787C15.9181 3.94787 16.7985 4.33881 17.4477 5.03468C18.0968 5.73054 18.4615 6.67434 18.4615 7.65844C18.4615 8.64255 18.0968 9.58635 17.4477 10.2822C16.7985 10.9781 15.9181 11.369 15 11.369C14.0819 11.369 13.2015 10.9781 12.5523 10.2822C11.9032 9.58635 11.5385 8.64255 11.5385 7.65844C11.5385 6.67434 11.9032 5.73054 12.5523 5.03468C13.2015 4.33881 14.0819 3.94787 15 3.94787ZM7.89692 21.6114C7.87226 21.6237 7.84802 21.6369 7.82423 21.651C5.69538 22.0517 3.89077 22.6009 2.52462 23.3517C1.84038 23.7264 1.25077 24.1705 0.793846 24.7036C0.335769 25.2379 0 25.9318 0 26.7135C0 27.886 0.724615 28.8025 1.58654 29.458C2.44846 30.1136 3.53654 30.6145 4.86808 31.0425C7.52769 31.8984 11.0827 32.3956 15 32.3956C18.9173 32.3956 22.4723 31.8984 25.1319 31.0425C26.4623 30.6145 27.5515 30.1148 28.4135 29.458C29.2754 28.8025 30 27.886 30 26.7135C30 25.9293 29.6654 25.1995 29.2062 24.6652C28.7469 24.1309 28.1631 23.7264 27.4754 23.3504C26.1023 22.5997 24.2804 22.0505 22.1388 21.6498C21.9883 21.6185 21.8334 21.6197 21.6833 21.6533C21.5331 21.687 21.3908 21.7523 21.2645 21.8457C21.1382 21.939 21.0305 22.0583 20.9478 22.1967C20.865 22.3352 20.8089 22.4899 20.7826 22.6519C20.7563 22.8138 20.7603 22.9798 20.7946 23.1401C20.8288 23.3003 20.8925 23.4517 20.9819 23.5852C21.0714 23.7188 21.1847 23.8319 21.3154 23.918C21.4461 24.004 21.5915 24.0613 21.7431 24.0864C23.7312 24.4574 25.3835 24.9831 26.43 25.5545C26.9538 25.839 27.3219 26.1445 27.5123 26.3659C27.7027 26.5873 27.6923 26.6751 27.6923 26.7135C27.6923 26.7716 27.6185 27.0387 27.0796 27.4481C26.5408 27.8575 25.6223 28.3065 24.4465 28.685C22.0962 29.4407 18.7292 29.9219 15 29.9219C11.2708 29.9219 7.90385 29.4407 5.55231 28.685C4.37769 28.3065 3.45923 27.8575 2.92154 27.4481C2.38154 27.0387 2.30769 26.7716 2.30769 26.7135C2.30769 26.6764 2.29962 26.5861 2.48769 26.3659C2.67692 26.1457 3.04962 25.839 3.57 25.5545C4.60846 24.9843 6.24462 24.4587 8.22115 24.0851C8.37491 24.0651 8.5234 24.0125 8.65795 23.9302C8.79249 23.848 8.9104 23.7378 9.00477 23.6062C9.09915 23.4745 9.16809 23.3241 9.20758 23.1635C9.24707 23.003 9.25631 22.8356 9.23476 22.6712C9.21321 22.5068 9.1613 22.3486 9.08208 22.206C9.00285 22.0633 8.89788 21.939 8.77332 21.8404C8.64876 21.7417 8.5071 21.6706 8.35662 21.6313C8.20615 21.592 8.04987 21.5852 7.89692 21.6114Z" fill="#2186FA"/>
</svg>
