<svg width="25" height="28" viewBox="0 0 25 28" fill="none" xmlns="http://www.w3.org/2000/svg">
<path d="M23.4328 27.0358C10.1031 27.0559 -0.0140478 16.0819 1.46417e-05 1.91724C1.46417e-05 0.991013 0.700014 0.237305 1.56251 0.237305H5.68751C6.46095 0.237305 7.11876 0.846972 7.23282 1.66768C7.50486 3.63579 8.03895 5.55187 8.81876 7.35734L8.9797 7.72917C9.0878 7.97939 9.11106 8.2622 9.04545 8.52883C8.97985 8.79546 8.82949 9.02918 8.62032 9.18969C7.3422 10.1678 6.8547 12.1359 7.85001 13.6701C9.10311 15.6018 10.6671 17.2789 12.4688 18.6228C13.9016 19.688 15.7375 19.1655 16.6484 17.7971C16.798 17.5722 17.0162 17.4104 17.2653 17.3397C17.5144 17.2691 17.7787 17.294 18.0125 17.4101L18.3578 17.581C20.0422 18.4184 21.8297 18.9913 23.6656 19.2827C24.4312 19.405 25 20.1101 25 20.9409V25.3609C25 25.581 24.9595 25.799 24.8809 26.0023C24.8023 26.2056 24.6871 26.3903 24.5418 26.5459C24.3965 26.7014 24.2241 26.8248 24.0344 26.9088C23.8446 26.9929 23.6413 27.0361 23.4359 27.0358H23.4328Z" fill="#2186FA"/>
</svg>
