<svg width="64" height="52" viewBox="0 0 64 52" fill="none" xmlns="http://www.w3.org/2000/svg">
<path d="M35.1153 12.0467C35.1153 15.2533 35.9877 18.0267 37.7762 20.28C40.4808 23.66 45.759 24.0933 48.8125 23.4C50.0775 30.55 43.9705 39.65 36.075 43.55L42.1384 52C54.047 46.3667 65.7812 33.4533 63.7746 17.1167C62.5096 6.80333 56.4899 0 47.9837 0C44.2758 0 41.1787 1.08333 38.7359 3.25C36.2931 5.41666 35.1153 8.36333 35.1153 12.0467ZM0 12.0467C0 15.2533 0.872433 18.0267 2.66092 20.28C5.40907 23.66 10.6437 24.0933 13.6972 23.4C14.9622 30.55 8.85517 39.65 0.959679 43.55L7.02307 52C18.9317 46.3667 30.6223 33.4533 28.6157 17.1167C27.3507 6.80333 21.3745 0 12.8683 0C9.16052 0 6.0634 1.08333 3.62059 3.25C1.17779 5.41666 0 8.36333 0 12.0467Z" fill="white"/>
</svg>
