<svg width="37" height="52" viewBox="0 0 37 52" fill="none" xmlns="http://www.w3.org/2000/svg">
<path d="M12.5693 21.2979H18.1748C19.6104 21.2979 20.7839 21.0472 21.6953 20.5459C22.6296 20.0218 23.3245 19.2926 23.7803 18.3584C24.236 17.4014 24.4639 16.2734 24.4639 14.9746C24.4639 13.972 24.2474 13.0492 23.8145 12.2061C23.4043 11.363 22.7663 10.6908 21.9004 10.1895C21.0345 9.66536 19.9294 9.40332 18.585 9.40332C17.6735 9.40332 16.7848 9.59701 15.9189 9.98438C15.0531 10.349 14.3353 10.873 13.7656 11.5566C13.2188 12.2402 12.9453 13.0719 12.9453 14.0518H1.39258C1.39258 11.2262 2.16732 8.81087 3.7168 6.80566C5.28906 4.77767 7.35124 3.22819 9.90332 2.15723C12.4782 1.06348 15.2467 0.516602 18.209 0.516602C21.7409 0.516602 24.8398 1.06348 27.5059 2.15723C30.1719 3.22819 32.2454 4.82324 33.7266 6.94238C35.2305 9.03874 35.9824 11.6364 35.9824 14.7354C35.9824 16.4443 35.5837 18.0508 34.7861 19.5547C33.9886 21.0586 32.8721 22.3802 31.4365 23.5195C30.001 24.6589 28.3148 25.5589 26.3779 26.2197C24.4639 26.8577 22.3675 27.1768 20.0889 27.1768H12.5693V21.2979ZM12.5693 29.877V24.1348H20.0889C22.5726 24.1348 24.8398 24.4196 26.8906 24.9893C28.9414 25.5361 30.7074 26.3564 32.1885 27.4502C33.6696 28.5439 34.8089 29.8997 35.6064 31.5176C36.404 33.1126 36.8027 34.9469 36.8027 37.0205C36.8027 39.3447 36.3356 41.4183 35.4014 43.2412C34.4671 45.0641 33.1569 46.6022 31.4707 47.8555C29.7845 49.1087 27.8135 50.0658 25.5576 50.7266C23.3018 51.3646 20.8522 51.6836 18.209 51.6836C16.1354 51.6836 14.0618 51.4102 11.9883 50.8633C9.91471 50.2936 8.02344 49.4277 6.31445 48.2656C4.60547 47.0807 3.22689 45.5768 2.17871 43.7539C1.15332 41.9082 0.640625 39.7093 0.640625 37.1572H12.1934C12.1934 38.2054 12.4782 39.1624 13.0479 40.0283C13.6403 40.8714 14.4264 41.5436 15.4062 42.0449C16.3861 42.5462 17.4456 42.7969 18.585 42.7969C19.9977 42.7969 21.194 42.5348 22.1738 42.0107C23.1764 41.4639 23.9398 40.7347 24.4639 39.8232C24.988 38.9118 25.25 37.8978 25.25 36.7812C25.25 35.0951 24.9652 33.7507 24.3955 32.748C23.8486 31.7454 23.0397 31.0163 21.9688 30.5605C20.9206 30.1048 19.6559 29.877 18.1748 29.877H12.5693Z" fill="url(#paint0_linear_1_405)"/>
<defs>
<linearGradient id="paint0_linear_1_405" x1="19.5" y1="-14" x2="19.5" y2="68" gradientUnits="userSpaceOnUse">
<stop stop-color="#2186FA"/>
<stop offset="1" stop-color="#E2F0FF" stop-opacity="0"/>
</linearGradient>
</defs>
</svg>
