<svg width="36" height="51" viewBox="0 0 36 51" fill="none" xmlns="http://www.w3.org/2000/svg">
<path d="M35.8027 42.1133V51H1.07617V43.4805L17.0723 26.6641C18.485 25.0462 19.6243 23.5993 20.4902 22.3232C21.3561 21.0244 21.9827 19.8509 22.3701 18.8027C22.7803 17.7546 22.9854 16.8089 22.9854 15.9658C22.9854 14.5303 22.7689 13.334 22.3359 12.377C21.9258 11.3971 21.3105 10.6566 20.4902 10.1553C19.6927 9.65397 18.7015 9.40332 17.5166 9.40332C16.3317 9.40332 15.2949 9.74512 14.4062 10.4287C13.5176 11.1123 12.8226 12.0465 12.3213 13.2314C11.8428 14.4163 11.6035 15.7493 11.6035 17.2305H0.0507812C0.0507812 14.1771 0.791341 11.3857 2.27246 8.85645C3.77637 6.32715 5.86133 4.31055 8.52734 2.80664C11.1934 1.27995 14.2809 0.516602 17.79 0.516602C21.4587 0.516602 24.5348 1.08626 27.0186 2.22559C29.5023 3.36491 31.3708 5.01693 32.624 7.18164C33.9001 9.32357 34.5381 11.9098 34.5381 14.9404C34.5381 16.6722 34.2646 18.3356 33.7178 19.9307C33.1709 21.5257 32.3848 23.1094 31.3594 24.6816C30.334 26.2311 29.0807 27.8262 27.5996 29.4668C26.1413 31.1074 24.4779 32.8506 22.6094 34.6963L16.1836 42.1133H35.8027Z" fill="url(#paint0_linear_1_407)"/>
<defs>
<linearGradient id="paint0_linear_1_407" x1="18.5" y1="-14" x2="18.5" y2="68" gradientUnits="userSpaceOnUse">
<stop stop-color="#2186FA"/>
<stop offset="1" stop-color="#E2F0FF" stop-opacity="0"/>
</linearGradient>
</defs>
</svg>
